# Blender 3.1.0
# www.blender.org
mtllib heart.mtl
o Heart
v 0.566931 1.000000 -0.247378
v 1.000000 0.564999 -0.200000
v 0.566931 1.000000 0.247378
v 0.000000 -1.000000 0.000000
v -0.566931 1.000000 -0.247378
v -0.566931 1.000000 0.247378
v -1.000000 0.564999 0.200000
v 1.000000 0.000000 -0.200000
v -1.000000 0.000000 0.200000
v 1.000000 0.000000 0.200000
v -1.000000 0.000000 -0.200000
v 1.000000 0.564999 0.200000
v -1.000000 0.564999 -0.200000
v 0.000000 0.564999 -0.439428
v 0.000000 0.810904 0.403115
v 0.000000 0.810904 -0.403115
v 0.000000 0.000000 -0.439428
v 0.000000 0.000000 0.439428
v 0.000000 0.564999 0.439428
vn 0.3164 0.9486 -0.0000
vn -0.2278 0.1292 0.9651
vn -0.7087 0.7055 -0.0000
vn 0.2328 -0.0000 -0.9725
vn 0.7087 0.7055 -0.0000
vn 0.2278 0.1292 -0.9651
vn 0.2141 -0.3930 -0.8943
vn 0.7071 -0.7071 -0.0000
vn -0.7071 -0.7071 -0.0000
vn -0.2141 -0.3930 0.8943
vn 1.0000 -0.0000 -0.0000
vn -1.0000 -0.0000 -0.0000
vn -0.2328 -0.0000 0.9725
vn 0.2328 -0.0000 0.9725
vn 0.2141 -0.3930 0.8943
vn -0.2141 -0.3930 -0.8943
vn -0.2278 0.1292 -0.9651
vn -0.2328 -0.0000 -0.9725
vn 0.2278 0.1292 0.9651
vn -0.3164 0.9486 -0.0000
vt -0.000013 0.500063
vt 0.999929 0.000071
vt 0.800063 0.999937
vt 0.999929 0.108806
vt -0.000013 0.608786
vt 0.199937 0.500063
vt 0.000141 0.000141
vt 1.000013 0.999937
vt 0.500000 0.500000
vt -0.000013 0.999937
vt 0.200063 0.999937
vt 0.499859 0.499859
vt 0.000141 0.499859
vt 0.000071 0.500000
vt 0.800063 0.500063
vt 0.400013 0.500063
vt 0.000071 0.000071
vt 1.000013 0.500063
vt 0.999576 0.000141
vt 0.200063 0.500063
vt 0.200063 0.608786
vt 0.999576 0.108830
vt 0.999929 0.250035
vt -0.000013 0.750000
vt 0.200063 0.750000
vt 0.999576 0.250000
vt 0.199937 0.750000
vt 0.000141 0.250000
vt 0.400013 0.750000
vt 0.000071 0.250035
vt 0.199937 0.608786
vt 0.000141 0.108830
vt 0.400013 0.608786
vt 0.000071 0.108806
vt 0.500000 0.108806
vt 0.499859 0.000141
vt 1.000013 0.750000
vt 0.500000 0.000071
vt 0.800063 0.750000
vt 0.500000 0.250035
vt 0.499859 0.250000
vt 0.499859 0.108830
s 0
f 16/39/1 5/15/1 6/18/1 15/37/1
f 19/42/2 15/36/2 6/19/2 7/22/2
f 7/21/3 6/20/3 5/16/3 13/33/3
f 17/40/4 14/35/4 2/4/4 8/23/4
f 2/5/5 1/1/5 3/6/5 12/31/5
f 14/35/6 16/38/6 1/2/6 2/4/6
f 4/9/7 17/40/7 8/23/7
f 4/10/8 8/24/8 10/27/8
f 4/11/9 9/25/9 11/29/9
f 4/12/10 18/41/10 9/26/10
f 8/24/11 2/5/11 12/31/11 10/27/11
f 9/25/12 7/21/12 13/33/12 11/29/12
f 18/41/13 19/42/13 7/22/13 9/26/13
f 10/28/14 12/32/14 19/42/14 18/41/14
f 4/13/15 10/28/15 18/41/15
f 4/14/16 11/30/16 17/40/16
f 13/34/17 5/17/17 16/38/17 14/35/17
f 11/30/18 13/34/18 14/35/18 17/40/18
f 12/32/19 3/7/19 15/36/19 19/42/19
f 1/3/20 16/39/20 15/37/20 3/8/20
