# Blender 3.3.0
# www.blender.org
mtllib lamp.metal.mtl
o Cone
v 0.000000 -1.000000 -1.000000
v 0.707107 -1.000000 -0.707107
v 1.000000 -1.000000 0.000000
v 0.707107 -1.000000 0.707107
v 0.000000 -1.000000 1.000000
v -0.707107 -1.000000 0.707107
v -1.000000 -1.000000 0.000000
v -0.707107 -1.000000 -0.707107
v 0.000000 1.000000 0.000000
vn 0.3474 0.4194 -0.8387
vn 0.8387 0.4194 -0.3474
vn 0.8387 0.4194 0.3474
vn 0.3474 0.4194 0.8387
vn -0.3474 0.4194 0.8387
vn -0.8387 0.4194 0.3474
vn -0.0000 -1.0000 -0.0000
vn -0.8387 0.4194 -0.3474
vn -0.3474 0.4194 -0.8387
vt 0.839040 0.281622
vt 0.458984 0.986645
vt 0.774092 0.856123
vt 0.932174 0.241964
vt 0.904613 0.541016
vt 0.970752 0.146220
vt 0.774092 0.225908
vt 0.932174 0.050476
vt 0.458984 0.095386
vt 0.839040 0.010817
vt 0.143877 0.225908
vt 0.745905 0.050476
vt 0.707327 0.146220
vt 0.013355 0.541016
vt 0.745905 0.241964
vt 0.143877 0.856123
vt 0.458984 0.541016
s 0
usemtl Material.001
f 1/2/1 9/17/1 2/3/1
f 2/3/2 9/17/2 3/5/2
f 3/5/3 9/17/3 4/7/3
f 4/7/4 9/17/4 5/9/4
f 5/9/5 9/17/5 6/11/5
f 6/11/6 9/17/6 7/14/6
f 1/1/7 2/4/7 3/6/7 4/8/7 5/10/7 6/12/7 7/13/7 8/15/7
f 7/14/8 9/17/8 8/16/8
f 8/16/9 9/17/9 1/2/9
