# Blender 3.1.0
# www.blender.org
mtllib thingy.mtl
o Cube
v -0.750000 0.000000 3.750000
v -0.750000 0.200000 3.750000
v -0.750000 0.000000 -3.750000
v -0.750000 0.200000 -3.750000
v 0.750000 0.000000 3.750000
v 0.750000 0.200000 3.750000
v 0.750000 0.000000 -3.750000
v 0.750000 0.200000 -3.750000
v -1.000000 0.000000 -4.000000
v -1.000000 0.000000 4.000000
v -1.000000 0.200000 4.000000
v -1.000000 0.200000 -4.000000
v 1.000000 0.000000 -4.000000
v 1.000000 0.200000 -4.000000
v 1.000000 0.000000 4.000000
v 1.000000 0.200000 4.000000
vn -1.0000 -0.0000 -0.0000
vn -0.0000 -0.0000 -1.0000
vn 1.0000 -0.0000 -0.0000
vn -0.0000 -0.0000 1.0000
vn -0.0000 -1.0000 -0.0000
vn -0.0000 1.0000 -0.0000
vt 0.156250 0.718750
vt 0.843750 0.718750
vt 0.156250 0.531250
vt 0.843750 0.531250
vt 0.343750 0.718750
vt 0.656250 0.718750
vt 0.343750 0.531250
vt 0.656250 0.531250
vt 0.375000 0.250000
vt 0.125000 0.500000
vt 0.375000 0.000000
vt 0.375000 1.000000
vt 0.125000 0.750000
vt 0.625000 0.000000
vt 0.625000 1.000000
vt 0.875000 0.750000
vt 0.625000 0.250000
vt 0.875000 0.500000
vt 0.375000 0.500000
vt 0.625000 0.500000
vt 0.375000 0.750000
vt 0.625000 0.750000
s 0
f 10/11/1 11/14/1 12/17/1 9/9/1
f 9/9/2 12/17/2 14/20/2 13/19/2
f 13/19/3 14/20/3 16/22/3 15/21/3
f 15/21/4 16/22/4 11/15/4 10/12/4
f 6/6/1 8/8/1 7/7/1 5/5/1
f 2/2/2 6/6/2 5/5/2 1/1/2
f 3/3/5 1/1/5 10/13/5 9/10/5
f 2/2/6 4/4/6 12/18/6 11/16/6
f 7/7/5 3/3/5 9/10/5 13/19/5
f 4/4/6 8/8/6 14/20/6 12/18/6
f 5/5/5 7/7/5 13/19/5 15/21/5
f 8/8/6 6/6/6 16/22/6 14/20/6
f 1/1/5 5/5/5 15/21/5 10/13/5
f 6/6/6 2/2/6 11/16/6 16/22/6
f 8/8/4 4/4/4 3/3/4 7/7/4
f 4/4/3 2/2/3 1/1/3 3/3/3
