# Blender 3.1.0
# www.blender.org
mtllib chandelier.mtl
o chandelier
v 0.000000 -1.000000 -1.711325
v 0.000000 0.000000 -2.000000
v 1.482051 -1.000000 -0.855662
v 1.732051 0.000000 -1.000000
v 1.482051 -1.000000 0.855663
v 1.732051 0.000000 1.000000
v -0.000000 -1.000000 1.711325
v -0.000000 0.000000 2.000000
v -1.482051 -1.000000 0.855662
v -1.732051 0.000000 1.000000
v -1.482051 -1.000000 -0.855662
v -1.732051 0.000000 -1.000000
v 0.000000 -1.000000 -2.000000
v 1.732051 -1.000000 -1.000000
v 1.732051 -1.000000 1.000000
v -0.000000 -1.000000 2.000000
v -1.732051 -1.000000 1.000000
v -1.732051 -1.000000 -1.000000
v 0.000000 -1.800000 -1.422650
v 1.232051 -1.800000 -0.711325
v 1.232051 -1.800000 0.711325
v -0.000000 -1.800000 1.422650
v -1.232051 -1.800000 0.711325
v -1.232051 -1.800000 -0.711325
v -0.000000 -1.800000 -1.711325
v 1.482051 -1.800000 -0.855662
v 1.482051 -1.800000 0.855663
v -0.000000 -1.800000 1.711325
v -1.482051 -1.800000 0.855662
v -1.482051 -1.800000 -0.855662
v -0.000000 -2.400000 -1.133975
v 0.982051 -2.400000 -0.566987
v 0.982051 -2.400000 0.566987
v -0.000000 -2.400000 1.133975
v -0.982051 -2.400000 0.566987
v -0.982051 -2.400000 -0.566987
v -0.000000 -2.400000 -1.422650
v 1.232051 -2.400000 -0.711325
v 1.232051 -2.400000 0.711325
v -0.000000 -2.400000 1.422650
v -1.232051 -2.400000 0.711325
v -1.232051 -2.400000 -0.711325
v -0.000000 -2.800000 -1.133975
v 0.982051 -2.800000 -0.566987
v 0.982051 -2.800000 0.566987
v -0.000000 -2.800000 1.133975
v -0.982051 -2.800000 0.566987
v -0.982051 -2.800000 -0.566987
vn 0.5000 -0.0000 -0.8660
vn 1.0000 -0.0000 -0.0000
vn 0.5000 -0.0000 0.8660
vn -0.5000 -0.0000 0.8660
vn -0.0000 1.0000 -0.0000
vn -1.0000 -0.0000 -0.0000
vn -0.5000 -0.0000 -0.8660
vn -0.0000 -1.0000 -0.0000
vt 0.750000 0.455359
vt 1.000000 1.000000
vt 0.250000 0.490000
vt -0.000000 1.000000
vt 0.927846 0.352680
vt 0.833333 1.000000
vt 0.457846 0.370000
vt 0.927846 0.147321
vt 0.666667 1.000000
vt 0.457846 0.130000
vt 0.750000 0.044641
vt 0.500000 1.000000
vt 0.250000 0.010000
vt 0.572154 0.147321
vt 0.042154 0.130000
vt 0.333333 1.000000
vt 0.572154 0.352679
vt 0.042154 0.370000
vt 0.166667 1.000000
vt 1.000000 0.500000
vt -0.000000 0.500000
vt 0.750000 0.490000
vt 0.833333 0.500000
vt 0.957846 0.370000
vt 0.666667 0.500000
vt 0.957846 0.130000
vt 0.500000 0.500000
vt 0.750000 0.010000
vt 0.333333 0.500000
vt 0.542154 0.130000
vt 0.166667 0.500000
vt 0.542154 0.370000
vt 0.750000 0.420718
vt 0.897846 0.335359
vt 0.897846 0.164641
vt 0.750000 0.079282
vt 0.602154 0.164641
vt 0.602154 0.335359
vt 0.750000 0.455359
vt 0.927846 0.352680
vt 0.927846 0.147321
vt 0.750000 0.044641
vt 0.572154 0.147321
vt 0.572154 0.352679
vt 0.750000 0.386077
vt 0.867846 0.318038
vt 0.867846 0.181962
vt 0.750000 0.113923
vt 0.632154 0.181962
vt 0.632154 0.318038
vt 0.750000 0.420718
vt 0.897846 0.335359
vt 0.897846 0.164641
vt 0.750000 0.079282
vt 0.602154 0.164641
vt 0.602154 0.335359
vt 0.750000 0.386077
vt 0.867846 0.318038
vt 0.867846 0.181962
vt 0.750000 0.113923
vt 0.632154 0.181962
vt 0.632154 0.318038
s 0
f 13/20/1 2/2/1 4/6/1 14/23/1
f 14/23/2 4/6/2 6/9/2 15/25/2
f 15/25/3 6/9/3 8/12/3 16/27/3
f 16/27/4 8/12/4 10/16/4 17/29/4
f 4/7/5 2/3/5 12/18/5 10/15/5 8/13/5 6/10/5
f 17/29/6 10/16/6 12/19/6 18/31/6
f 18/31/7 12/19/7 2/4/7 13/21/7
f 7/11/4 9/14/4 29/43/4 28/42/4
f 3/5/8 1/1/8 13/22/8 14/24/8
f 5/8/8 3/5/8 14/24/8 15/26/8
f 7/11/8 5/8/8 15/26/8 16/28/8
f 9/14/8 7/11/8 16/28/8 17/30/8
f 11/17/8 9/14/8 17/30/8 18/32/8
f 1/1/8 11/17/8 18/32/8 13/22/8
f 19/33/1 20/34/1 38/52/1 37/51/1
f 3/5/2 5/8/2 27/41/2 26/40/2
f 9/14/6 11/17/6 30/44/6 29/43/6
f 5/8/3 7/11/3 28/42/3 27/41/3
f 1/1/1 3/5/1 26/40/1 25/39/1
f 11/17/7 1/1/7 25/39/7 30/44/7
f 20/34/8 19/33/8 25/39/8 26/40/8
f 21/35/8 20/34/8 26/40/8 27/41/8
f 22/36/8 21/35/8 27/41/8 28/42/8
f 23/37/8 22/36/8 28/42/8 29/43/8
f 24/38/8 23/37/8 29/43/8 30/44/8
f 19/33/8 24/38/8 30/44/8 25/39/8
f 36/50/7 31/45/7 43/57/7 48/62/7
f 24/38/7 19/33/7 37/51/7 42/56/7
f 22/36/4 23/37/4 41/55/4 40/54/4
f 20/34/2 21/35/2 39/53/2 38/52/2
f 23/37/6 24/38/6 42/56/6 41/55/6
f 21/35/3 22/36/3 40/54/3 39/53/3
f 32/46/8 31/45/8 37/51/8 38/52/8
f 33/47/8 32/46/8 38/52/8 39/53/8
f 34/48/8 33/47/8 39/53/8 40/54/8
f 35/49/8 34/48/8 40/54/8 41/55/8
f 36/50/8 35/49/8 41/55/8 42/56/8
f 31/45/8 36/50/8 42/56/8 37/51/8
f 43/57/8 44/58/8 45/59/8 46/60/8 47/61/8 48/62/8
f 34/48/4 35/49/4 47/61/4 46/60/4
f 32/46/2 33/47/2 45/59/2 44/58/2
f 35/49/6 36/50/6 48/62/6 47/61/6
f 33/47/3 34/48/3 46/60/3 45/59/3
f 31/45/1 32/46/1 44/58/1 43/57/1
