# Blender 3.1.0
# www.blender.org
mtllib monke.mtl
o Suzanne
v -0.546875 0.054688 -0.578125
v 0.546875 0.054688 -0.578125
v 0.348823 -0.039891 -0.626154
v -0.348823 -0.039891 -0.626154
v -0.243436 0.183277 -0.809088
v -0.156250 0.054688 -0.648438
v 0.156250 0.054688 -0.648438
v 0.066086 0.241075 -0.663968
v -0.065623 0.241473 -0.664332
v -0.296268 0.364523 -0.805121
v -0.156250 0.437500 -0.648438
v 0.156250 0.437500 -0.648438
v -0.351562 0.515625 -0.617188
v 0.351562 0.515625 -0.617188
v 0.293751 0.363527 -0.805224
v 0.466618 0.309081 -0.768140
v -0.546875 0.437500 -0.578125
v 0.546875 0.437500 -0.578125
v -0.633369 0.242106 -0.566534
v 0.633263 0.242030 -0.566494
v -0.467091 0.308394 -0.768123
v 0.243136 0.183168 -0.809604
v -0.411605 0.129821 -0.794655
v 0.411605 0.129821 -0.794655
v 0.000000 -0.187500 -0.796875
v -0.161855 0.425610 0.886247
v -0.174571 -0.359035 0.421084
v -0.223095 -0.182572 -0.537520
v 0.356728 -0.927976 -0.573527
v -0.561106 -0.083400 -0.569124
v -0.801472 0.401529 -0.631966
v 0.278309 0.403248 -0.761608
v -0.306832 0.476701 -0.752781
v 0.000000 -0.195312 -0.750000
v 0.000000 -0.140625 -0.742188
v -0.085959 -0.130101 -0.804936
v 0.590524 -0.058461 -0.582604
v 0.816663 0.389995 -0.639416
v 0.248244 0.648821 -0.854577
v -0.252976 0.656178 -0.850654
v 0.004469 0.371789 -0.809708
v 0.091305 -0.118257 -0.792388
v -0.342333 -0.952106 -0.579292
v -0.134283 -0.242667 -0.751561
v 0.003510 -0.332462 -0.762465
v 0.128254 -0.242695 -0.759088
v -0.094934 -0.794266 -0.702949
v 0.098573 -0.730395 -0.728907
v 0.065943 -0.865276 -0.683015
v 0.412973 0.388532 -0.752534
v 0.548006 0.301844 -0.681778
v 0.543159 0.212734 -0.683209
v 0.414005 0.087832 -0.718920
v -0.198150 0.304100 -0.760369
v 0.196071 0.294624 -0.761091
v -0.324415 0.390499 -0.806824
v -0.222894 0.132351 -0.756619
v -0.414528 0.069190 -0.697299
v -0.536324 0.197204 -0.687762
v -0.549449 0.303430 -0.675520
v 0.219586 0.131121 -0.753801
v 0.002492 0.430919 -0.632235
v 0.251173 0.772215 -0.702398
v -0.250629 0.772171 -0.701714
v 0.457458 0.528564 -0.474708
v 0.711654 0.400774 -0.307327
v 0.801044 0.082684 -0.349172
v 0.237773 -0.217792 -0.507440
v -0.789853 0.107807 -0.400528
v -0.001752 0.976525 -0.190772
v 0.011619 -0.075160 0.779360
v 0.844518 0.402894 0.455613
v 0.214052 -0.410230 -0.341908
v 0.286777 -0.948688 -0.400826
v -0.321192 -0.910612 -0.408725
v -0.000282 -0.495311 -0.307091
v -0.199753 -0.398234 -0.297475
v -0.187004 0.931783 0.498892
v 0.718625 0.694284 0.380830
v 0.476077 0.899132 -0.128827
v -0.465608 0.900982 -0.152219
v -0.460237 0.527298 -0.472638
v -0.717463 0.403459 -0.312642
v 0.781498 0.576058 -0.095848
v -0.781498 0.576058 -0.095848
v -0.770823 0.623203 0.342437
v 0.412197 -0.155198 0.470120
v -0.539567 -0.142898 0.158480
v 1.253194 -0.000911 0.462036
v 1.363250 0.313430 0.444733
v 1.144385 0.493109 0.352791
v -1.211712 0.314025 0.444590
v -1.179577 -0.017760 0.396365
v -0.704133 -0.078292 0.124813
v -0.861481 0.344903 0.192084
v -0.851778 -0.000411 0.293091
v 1.147014 0.048217 0.437880
v 1.210577 0.316817 0.444218
v 0.983413 0.301681 0.354455
v 0.795922 0.102855 0.308274
v -0.790779 0.104465 0.308961
v 0.708888 -0.071127 0.139283
v 0.851212 0.363598 0.191879
v -0.985268 0.297194 0.359371
v 0.849688 -0.002268 0.295795
v -1.142695 0.041631 0.458032
v 1.223191 0.489490 0.551496
v -1.227002 0.480829 0.552827
v -1.310776 0.440003 0.431381
v -1.225087 -0.009861 0.547001
v 0.771686 -0.120624 0.323445
v -0.696472 -0.061959 0.374711
v -0.833846 0.352238 0.391235
vn -0.7426 -0.1332 -0.6563
vn 0.7425 -0.1307 -0.6570
vn -0.4662 -0.7042 -0.5356
vn 0.4662 -0.7042 -0.5356
vn 0.1498 -0.6682 -0.7288
vn -0.1472 -0.6690 -0.7286
vn 0.6561 -0.3741 -0.6555
vn 0.5826 0.1871 -0.7909
vn -0.5878 0.1841 -0.7878
vn -0.6212 0.3409 -0.7056
vn -0.2249 0.7902 -0.5701
vn -0.7806 0.3135 -0.5408
vn -0.0846 -0.0029 -0.9964
vn 0.0882 -0.0006 -0.9961
vn -0.2335 0.0715 -0.9697
vn 0.2310 0.0726 -0.9702
vn -0.2418 -0.9212 -0.3048
vn 0.2884 -0.8481 -0.4445
vn -0.5460 -0.5317 -0.6474
vn 0.5095 0.6635 -0.5478
vn 0.6935 0.5631 -0.4495
vn 0.1997 -0.3254 -0.9242
vn 0.2017 -0.3251 -0.9239
vn -0.4490 -0.0703 -0.8908
vn 0.0068 0.1845 -0.9828
vn 0.0332 -0.8268 -0.5616
vn -0.3883 -0.1084 -0.9151
vn 1.0000 -0.0000 -0.0000
vn -0.4777 0.6670 -0.5717
vn -0.2757 -0.3127 -0.9090
vn 0.1324 -0.1472 -0.9802
vn 0.4962 -0.4331 -0.7524
vn -0.5153 0.3837 -0.7663
vn -0.0225 -0.3171 -0.9481
vn -0.4081 -0.3247 -0.8532
vn 0.4640 -0.2357 -0.8539
vn 0.0199 0.6507 0.7591
vn 0.5327 0.3689 -0.7617
vn 0.8073 0.5625 -0.1784
vn -0.8115 0.5516 -0.1928
vn -0.9550 0.1594 0.2503
vn -0.0264 -0.2184 0.9755
vn 0.1911 -0.0812 0.9782
vn -0.0638 -0.9678 0.2434
vn -0.9740 0.2160 0.0682
vn 0.9202 0.0824 0.3826
vn -0.0504 -0.2005 0.9784
vn -0.4342 -0.8985 0.0642
vn -0.5896 0.2740 0.7598
vn -0.7208 0.6909 -0.0568
vn 0.7285 0.6812 -0.0729
vn 0.3734 0.4429 0.8151
vn -0.3767 0.4419 0.8141
vn -0.3788 0.6735 -0.6347
vn -0.9490 0.3150 -0.0108
vn 0.9344 0.3545 0.0353
vn -0.9613 0.2460 0.1243
vn -0.5425 -0.8375 0.0647
vn -0.5632 -0.2186 0.7969
vn 0.3857 -0.2759 0.8804
vn 0.5164 -0.3801 0.7673
vn -0.0073 -0.4625 -0.8866
vn 0.3363 0.1673 -0.9268
vn 0.3668 -0.3161 -0.8750
vn -0.3023 -0.9129 -0.2741
vn -0.9355 -0.3523 0.0279
vn 0.9395 -0.2845 -0.1910
vn 0.5731 -0.4323 -0.6962
vn 0.9447 -0.3187 0.0779
vn -0.6336 -0.4809 -0.6060
vn -0.0679 0.1878 -0.9799
vn -0.4962 -0.0293 -0.8677
vn 0.4334 -0.0168 -0.9010
vn -0.3578 -0.1362 -0.9238
vn 0.0225 0.9428 -0.3325
vn -0.1843 0.9714 -0.1494
vn -0.2282 -0.1882 0.9553
vn -0.8215 -0.0100 0.5701
vn 0.4960 -0.1264 0.8591
vn -0.3772 -0.9233 0.0719
vn -0.7534 -0.3119 -0.5789
vn 0.7536 -0.3115 -0.5789
vn 0.2558 -0.6822 -0.6849
vn -0.2566 -0.6836 -0.6833
vn -0.6591 -0.3732 -0.6529
vn 0.6158 0.3422 -0.7097
vn 0.2251 0.7906 -0.5694
vn 0.3744 0.6740 -0.6368
vn -0.2626 -0.2778 -0.9240
vn 0.7806 0.3128 -0.5411
vn -0.8947 0.1612 -0.4165
vn 0.8937 0.1876 -0.4075
vn -0.6938 -0.2276 -0.6832
vn 0.7815 -0.4490 -0.4333
vn -0.5214 0.6772 -0.5192
vn -0.7096 0.5539 -0.4355
vn -0.1805 -0.3115 -0.9330
vn 0.2925 -0.2215 -0.9302
vn 0.2130 -0.1883 -0.9587
vn -0.1326 0.0973 -0.9864
vn -0.0538 -0.1672 -0.9845
vn 0.3928 -0.0601 -0.9177
vn 0.1874 -0.1465 -0.9713
vn 0.3626 -0.0795 -0.9285
vn 0.2428 -0.0083 -0.9700
vn -0.1128 -0.4971 -0.8603
vn 0.2576 -0.3665 -0.8940
vn -0.1179 -0.1022 -0.9878
vn -0.4433 0.8528 0.2762
vn 0.4939 0.6602 -0.5659
vn -0.0726 0.0312 0.9969
vn 0.0842 -0.2342 -0.9685
vn -0.8890 0.1824 -0.4201
vn 0.8996 0.1581 -0.4071
vn -0.0374 -0.6214 -0.7826
vn -0.0274 -0.6990 -0.7146
vn -0.5718 0.5163 -0.6375
vn 0.4523 0.8495 0.2716
vn 0.3267 -0.9172 0.2280
vn 0.9313 0.2239 0.2872
vn 0.4330 -0.8893 0.1472
vn 0.0352 -0.9939 -0.1049
vn -0.9662 0.1379 0.2178
vn 0.9481 0.1319 0.2892
vn -0.2845 -0.8026 0.5243
vn -0.4043 -0.6029 0.6878
vn 0.2404 -0.8177 0.5230
vn 0.2252 0.9560 0.1882
vn -0.4718 -0.3373 0.8146
vn 0.3915 -0.0603 0.9182
vn -0.1590 0.9871 0.0213
vn 0.3002 0.5202 0.7996
vn -0.6223 0.5073 -0.5962
vn -0.4673 0.5225 0.7132
vn -0.4960 0.8511 0.1720
vn 0.6223 0.5076 -0.5959
vn -0.1488 0.6301 -0.7621
vn 0.1624 0.6416 -0.7496
vn -0.9512 0.1800 -0.2505
vn 0.9526 0.1680 -0.2538
vn 0.3937 -0.9158 -0.0791
vn 0.9206 0.3889 -0.0346
vn 0.9557 -0.2507 -0.1545
vn -0.6091 -0.7579 -0.2338
vn 0.0859 -0.0443 -0.9953
vn -0.0114 -0.9666 -0.2559
vn -0.4923 -0.8698 -0.0316
vn -0.2233 0.7859 -0.5767
vn -0.4197 -0.6246 -0.6585
vn 0.4002 0.4816 -0.7797
vn 0.7688 0.1643 -0.6180
vn -0.0887 -0.9947 0.0518
vn -0.5670 0.4356 -0.6991
vn 0.5941 0.3875 -0.7049
vn -0.9370 -0.3304 -0.1129
vn 0.7268 -0.6139 -0.3080
vn 0.0632 0.8913 -0.4490
vn 0.0769 0.1562 -0.9847
vn 0.3705 -0.0658 -0.9265
vn 0.3456 0.0300 0.9379
vn 0.3189 -0.8824 -0.3459
vn -0.9313 -0.2464 -0.2684
vn 0.6753 0.6920 -0.2552
vn -0.4890 0.8468 0.2094
vn 0.2823 0.9565 -0.0744
vn -0.1933 -0.2148 0.9573
vt 0.853018 0.521562
vt 0.847458 0.888748
vt 0.795130 0.838386
vt 0.798506 0.569552
vt 0.860051 0.630865
vt 0.791018 0.645443
vt 0.791018 0.762238
vt 0.844750 0.707253
vt 0.842259 0.702752
vt 0.897193 0.634433
vt 0.918898 0.699697
vt 0.921180 0.713713
vt 0.968392 0.645333
vt 0.968213 0.770220
vt 0.896148 0.777610
vt 0.897948 0.811769
vt 0.968392 0.573812
vt 0.965038 0.841671
vt 0.920246 0.524366
vt 0.914742 0.888926
vt 0.900073 0.600696
vt 0.859266 0.779911
vt 0.865294 0.596428
vt 0.863045 0.814502
vt 0.519132 0.185382
vt 0.011829 0.155367
vt 0.963770 0.173241
vt 0.232648 0.003484
vt 0.813977 0.048821
vt 0.611847 0.159877
vt 0.487210 0.061933
vt 0.660792 0.225157
vt 0.696892 0.314498
vt 0.439452 0.332078
vt 0.610356 0.339422
vt 0.517577 0.190607
vt 0.519841 0.200843
vt 0.535391 0.189605
vt 0.377394 0.233168
vt 0.340548 0.318412
vt 0.434535 0.380359
vt 0.609776 0.376532
vt 0.522683 0.361282
vt 0.500449 0.191834
vt 0.549484 0.061931
vt 0.545922 0.166925
vt 0.517872 0.153908
vt 0.493431 0.169151
vt 0.525748 0.079745
vt 0.508300 0.085721
vt 0.513037 0.072664
vt 0.413540 0.324355
vt 0.389878 0.303980
vt 0.391580 0.287347
vt 0.419150 0.266113
vt 0.579590 0.310661
vt 0.461186 0.311213
vt 0.608315 0.326362
vt 0.581249 0.274621
vt 0.619747 0.263868
vt 0.647431 0.284031
vt 0.650757 0.299854
vt 0.459133 0.274213
vt 0.524536 0.433700
vt 0.825956 0.455045
vt 0.217614 0.477521
vt 0.279331 0.457858
vt 0.422114 0.408454
vt 0.763149 0.431455
vt 0.622043 0.403752
vt 0.350292 0.396229
vt 0.249207 0.387964
vt 0.262597 0.316840
vt 0.295780 0.246821
vt 0.420733 0.159776
vt 0.722985 0.252887
vt 0.927090 0.385070
vt 0.087610 0.412904
vt 0.923249 0.061717
vt 0.107997 0.046395
vt 0.170926 0.194638
vt 0.106750 0.582589
vt 0.399481 0.082116
vt 0.539877 0.021327
vt 0.483995 0.049530
vt 0.558356 0.053724
vt 0.643405 0.019704
vt 0.394896 0.019215
vt 0.645964 0.082889
vt 0.000144 0.259113
vt 0.966681 0.256668
vt 0.145989 0.246575
vt 0.147220 0.341845
vt 0.871997 0.327847
vt 0.692106 0.388274
vt 0.786595 0.369001
vt 0.734010 0.317916
vt 0.766492 0.308454
vt 0.208596 0.287729
vt 0.819308 0.278589
vt 0.861899 0.236042
vt 0.200481 0.102779
vt 0.391039 0.611891
vt 0.781780 0.141935
vt 0.202065 0.718584
vt 0.137396 0.774299
vt 0.197818 0.864697
vt 0.049526 0.748824
vt 0.560548 0.806371
vt 0.538067 0.730335
vt 0.796877 0.178399
vt 0.410118 0.681576
vt 0.822052 0.212701
vt 0.403013 0.833180
vt 0.742304 0.597357
vt 0.442893 0.725137
vt 0.225920 0.744218
vt 0.195111 0.800886
vt 0.271952 0.812762
vt 0.332923 0.748250
vt 0.425874 0.753736
vt 0.235548 0.169661
vt 0.356774 0.669174
vt 0.343481 0.856604
vt 0.203277 0.217482
vt 0.044323 0.542309
vt 0.491468 0.817831
vt 0.316181 0.720208
vt 0.529470 0.751629
vt 0.095807 0.725654
vt 0.661965 0.735554
vt 0.604030 0.830760
vt 0.667229 0.769635
vt 0.568363 0.712314
vt 0.196622 0.155241
vt 0.269185 0.610136
vt 0.854987 0.141773
vt 0.488530 0.604411
vt 0.836684 0.203906
vt 0.658213 0.585676
s 0
f 21/21/1 23/23/1 19/19/1
f 24/24/2 16/16/2 20/20/2
f 23/23/3 4/4/3 1/1/3
f 3/3/4 24/24/4 2/2/4
f 23/23/5 5/5/5 4/4/5
f 22/22/6 24/24/6 3/3/6
f 9/9/7 6/6/7 5/5/7
f 5/5/8 10/10/8 9/9/8
f 15/15/9 22/22/9 8/8/9
f 15/15/10 8/8/10 12/12/10
f 15/15/11 12/12/11 14/14/11
f 19/19/12 17/17/12 21/21/12
f 23/23/13 10/10/13 5/5/13
f 22/22/14 15/15/14 24/24/14
f 23/23/15 21/21/15 10/10/15
f 15/15/16 16/16/16 24/24/16
f 28/30/17 30/32/17 36/38/17
f 37/39/18 68/75/18 42/44/18
f 31/33/19 59/61/19 69/76/19
f 39/41/20 63/68/20 38/40/20
f 41/43/21 40/42/21 64/70/21
f 32/34/22 41/43/22 39/41/22
f 38/40/23 32/34/23 39/41/23
f 36/38/24 30/32/24 57/59/24
f 57/59/25 61/63/25 36/38/25
f 43/45/26 49/51/26 29/31/26
f 44/46/27 47/49/27 43/45/27
f 25/25/28 35/37/28 34/36/28
f 25/25/29 35/37/29 42/44/29
f 36/38/30 45/47/30 44/46/30
f 45/47/31 36/38/31 46/48/31
f 35/37/32 36/38/32 61/63/32
f 42/44/33 35/37/33 61/63/33
f 49/51/34 47/49/34 48/50/34
f 30/32/35 59/61/35 58/60/35
f 52/54/36 37/39/36 53/55/36
f 32/34/37 51/53/37 50/52/37
f 54/56/38 56/58/38 33/35/38
f 41/43/39 64/70/39 62/64/39
f 63/68/40 41/43/40 62/64/40
f 69/76/41 83/98/41 31/33/41
f 76/87/42 75/86/42 74/84/42
f 76/88/43 74/85/43 73/83/43
f 43/45/44 74/85/44 75/86/44
f 43/45/45 75/86/45 77/89/45
f 74/85/46 29/31/46 73/83/46
f 75/86/47 76/87/47 77/89/47
f 27/29/48 77/89/48 76/87/48
f 26/27/49 86/101/49 113/139/49
f 81/94/50 85/100/50 86/101/50
f 84/99/51 80/93/51 79/92/51
f 62/65/52 64/69/52 82/96/52
f 63/67/53 62/66/53 65/72/53
f 13/13/54 10/10/54 21/21/54 17/17/54
f 95/113/55 86/101/55 85/100/55
f 79/92/56 103/125/56 84/99/56
f 86/101/57 95/113/57 113/139/57
f 27/29/58 88/104/58 77/89/58
f 112/137/59 26/27/59 113/139/59
f 111/135/60 72/81/60 87/102/60
f 72/81/61 71/80/61 87/102/61
f 91/107/62 90/106/62 98/118/62
f 92/109/63 93/110/63 109/133/63
f 99/119/64 91/107/64 98/118/64
f 88/104/65 94/111/65 69/76/65
f 69/76/66 94/111/66 95/113/66
f 103/124/67 100/120/67 102/123/67
f 103/124/68 91/107/68 100/120/68
f 67/74/69 103/125/69 102/122/69
f 101/121/70 104/127/70 95/114/70
f 96/116/71 104/127/71 101/121/71
f 106/129/72 104/127/72 96/116/72
f 99/119/73 97/117/73 105/128/73
f 104/127/74 106/129/74 92/109/74
f 109/133/75 108/131/75 95/115/75
f 103/126/76 72/82/76 107/130/76
f 89/105/77 107/130/77 111/136/77
f 108/131/78 109/133/78 110/134/78
f 89/105/79 90/106/79 107/130/79
f 88/103/80 112/138/80 94/112/80
f 19/19/81 23/23/81 1/1/81
f 2/2/82 24/24/82 20/20/82
f 4/4/83 5/5/83 6/6/83
f 7/7/84 22/22/84 3/3/84
f 8/8/85 22/22/85 7/7/85
f 10/10/86 11/11/86 9/9/86
f 10/10/87 13/13/87 11/11/87
f 14/14/88 18/18/88 16/16/88 15/15/88
f 41/43/89 54/56/89 33/35/89 40/42/89
f 20/20/90 16/16/90 18/18/90
f 28/30/91 44/46/91 43/45/91
f 29/31/92 46/48/92 68/75/92
f 30/32/93 69/76/93 59/61/93
f 38/40/94 67/74/94 37/39/94
f 64/70/95 40/42/95 31/33/95
f 41/43/96 63/68/96 39/41/96
f 33/35/97 60/62/97 31/33/97 40/42/97
f 51/53/98 38/40/98 37/39/98 52/54/98
f 38/40/99 51/53/99 32/34/99
f 59/61/100 31/33/100 60/62/100
f 61/63/101 57/59/101 54/56/101 41/43/101
f 42/44/102 61/63/102 37/39/102
f 41/43/103 32/34/103 55/57/103
f 46/48/104 29/31/104 48/50/104 45/47/104
f 61/63/105 41/43/105 55/57/105
f 47/49/106 49/51/106 43/45/106
f 49/51/107 48/50/107 29/31/107
f 48/50/108 47/49/108 44/46/108 45/47/108
f 82/95/109 64/70/109 31/33/109 83/97/109
f 25/25/110 36/38/110 35/37/110
f 42/44/111 36/38/111 25/25/111
f 46/48/112 36/38/112 42/44/112
f 28/30/113 36/38/113 44/46/113
f 46/48/114 42/44/114 68/75/114
f 57/59/115 30/32/115 58/60/115
f 53/55/116 37/39/116 61/63/116
f 33/35/117 56/58/117 60/62/117
f 65/71/118 66/73/118 38/40/118 63/68/118
f 27/28/119 76/88/119 73/83/119 87/102/119
f 67/74/120 38/40/120 66/73/120
f 68/75/121 37/39/121 67/74/121
f 74/85/122 43/45/122 29/31/122
f 28/30/123 43/45/123 77/89/123
f 73/83/124 29/31/124 68/75/124
f 28/30/125 69/76/125 30/32/125
f 112/137/126 27/29/126 71/79/126
f 87/102/127 71/80/127 27/28/127
f 70/78/128 78/90/128 79/92/128 80/93/128
f 26/27/129 112/137/129 71/79/129
f 72/81/130 26/26/130 71/80/130
f 70/77/131 81/94/131 78/91/131
f 78/90/132 26/26/132 72/81/132 79/92/132
f 83/98/133 85/100/133 81/94/133 82/96/133
f 26/27/134 78/91/134 86/101/134
f 78/91/135 81/94/135 86/101/135
f 80/93/136 84/99/136 66/73/136 65/72/136
f 70/77/137 62/65/137 82/96/137 81/94/137
f 70/78/138 80/93/138 65/72/138 62/66/138
f 85/100/139 83/98/139 69/76/139 95/113/139
f 67/74/140 66/73/140 84/99/140 103/125/140
f 102/122/141 87/102/141 68/75/141 67/74/141
f 79/92/142 72/81/142 103/125/142
f 87/102/143 73/83/143 68/75/143
f 77/89/144 88/104/144 69/76/144 28/30/144
f 89/105/145 97/117/145 98/118/145 90/106/145
f 87/102/146 102/122/146 111/135/146
f 27/29/147 112/137/147 88/104/147
f 96/116/148 94/112/148 93/110/148 106/129/148
f 109/132/149 95/114/149 104/127/149 92/109/149
f 102/123/150 97/117/150 89/105/150
f 92/109/151 106/129/151 93/110/151
f 112/138/152 110/134/152 93/110/152 94/112/152
f 101/121/153 94/112/153 96/116/153
f 105/128/154 102/123/154 100/120/154
f 95/114/155 94/112/155 101/121/155
f 100/120/156 91/107/156 99/119/156
f 97/117/157 102/123/157 105/128/157
f 105/128/158 100/120/158 99/119/158
f 99/119/159 98/118/159 97/117/159
f 113/140/160 108/131/160 110/134/160 112/138/160
f 111/136/161 102/123/161 89/105/161
f 93/110/162 110/134/162 109/133/162
f 90/106/163 91/108/163 107/130/163
f 91/108/164 103/126/164 107/130/164
f 95/115/165 108/131/165 113/140/165
f 111/136/166 107/130/166 72/82/166
